HIERARCHY
ROOT Hips
{
	OFFSET	0.00	0.00	0.00
	CHANNELS 6 Xposition Yposition Zposition Zrotation Xrotation Yrotation
	JOINT LeftUpLeg
	{
		OFFSET	 0.126116	-0.065224	 0.014019
		CHANNELS 3 Zrotation Xrotation Yrotation
		JOINT LeftLeg
		{
			OFFSET	 0.000000	 0.569914	 0.000000
			CHANNELS 3 Zrotation Xrotation Yrotation
			JOINT LeftFoot
			{
				OFFSET	 0.000000	 0.544423	 0.000000
				CHANNELS 3 Zrotation Xrotation Yrotation
				JOINT LeftToeBase
				{
					OFFSET	 0.000000	 0.207117	 0.000000
					CHANNELS 3 Zrotation Xrotation Yrotation
					End Site
					{
						OFFSET	 0.000000	 0.207117	 0.000000
					}
				}
			}
		}
	}
	JOINT RightUpLeg
	{
		OFFSET	-0.124023	-0.065224	 0.008373
		CHANNELS 3 Zrotation Xrotation Yrotation
		JOINT RightLeg
		{
			OFFSET	 0.000000	 0.570047	 0.000000
			CHANNELS 3 Zrotation Xrotation Yrotation
			JOINT RightFoot
			{
				OFFSET	 0.000000	 0.544354	 0.000000
				CHANNELS 3 Zrotation Xrotation Yrotation
				JOINT RightToeBase
				{
					OFFSET	 0.000000	 0.207540	 0.000000
					CHANNELS 3 Zrotation Xrotation Yrotation
					End Site
					{
						OFFSET	 0.000000	 0.207540	 0.000000
					}
				}
			}
		}
	}
	JOINT Spine
	{
		OFFSET	 0.000184	 0.117403	 0.007763
		CHANNELS 3 Zrotation Xrotation Yrotation
		JOINT Spine1
		{
			OFFSET	 0.000000	 0.137269	 0.000000
			CHANNELS 3 Zrotation Xrotation Yrotation
			JOINT Spine2
			{
				OFFSET	 0.000000	 0.156879	 0.000000
				CHANNELS 3 Zrotation Xrotation Yrotation
				JOINT LeftShoulder
				{
					OFFSET	 0.080501	 0.160143	 0.002496
					CHANNELS 3 Zrotation Xrotation Yrotation
					JOINT LeftArm
					{
						OFFSET	 0.000000	 0.164363	 0.000000
						CHANNELS 3 Zrotation Xrotation Yrotation
						JOINT LeftForeArm
						{
							OFFSET	 0.000000	 0.364576	 0.000000
							CHANNELS 3 Zrotation Xrotation Yrotation
							JOINT LeftHand
							{
								OFFSET	 0.000000	 0.360812	 0.000000
								CHANNELS 3 Zrotation Xrotation Yrotation
								JOINT LeftHandIndex1
								{
									OFFSET	 0.000000	 0.086006	 0.000000
									CHANNELS 3 Zrotation Xrotation Yrotation
									JOINT LeftHandIndex2
									{
										OFFSET	 0.000000	 0.047237	 0.000000
										CHANNELS 3 Zrotation Xrotation Yrotation
										JOINT LeftHandIndex3
										{
											OFFSET	-0.004284	 0.038165	 0.000551
											CHANNELS 3 Zrotation Xrotation Yrotation
											End Site
											{
												OFFSET	-0.004284	 0.038165	 0.000551
											}
										}
									}
								}
							}
						}
					}
				}
				JOINT Neck
				{
					OFFSET	 0.000000	 0.176489	 0.000000
					CHANNELS 3 Zrotation Xrotation Yrotation
					JOINT Head
					{
						OFFSET	 0.000000	 0.077941	 0.001747
						CHANNELS 3 Zrotation Xrotation Yrotation
						End Site
						{
							OFFSET	 0.000000	 0.077941	 0.001747
						}
					}
				}
				JOINT RightShoulder
				{
					OFFSET	-0.080363	 0.159706	-0.000306
					CHANNELS 3 Zrotation Xrotation Yrotation
					JOINT RightArm
					{
						OFFSET	 0.000000	 0.164196	 0.000000
						CHANNELS 3 Zrotation Xrotation Yrotation
						JOINT RightForeArm
						{
							OFFSET	 0.000000	 0.365611	 0.000000
							CHANNELS 3 Zrotation Xrotation Yrotation
							JOINT RightHand
							{
								OFFSET	 0.000000	 0.360648	 0.000000
								CHANNELS 3 Zrotation Xrotation Yrotation
								JOINT RightHandIndex1
								{
									OFFSET	 0.000000	 0.069977	 0.000000
									CHANNELS 3 Zrotation Xrotation Yrotation
									JOINT RightHandIndex2
									{
										OFFSET	 0.000000	 0.052305	 0.000000
										CHANNELS 3 Zrotation Xrotation Yrotation
										JOINT RightHandIndex3
										{
											OFFSET	 0.009002	 0.042196	 0.000782
											CHANNELS 3 Zrotation Xrotation Yrotation
											End Site
											{
												OFFSET	 0.009002	 0.042196	 0.000782
											}
										}
									}
								}
							}
						}
					}
				}
			}
		}
	}
}
MOTION
Frames:    4
Frame Time: 0.03333334
-0.061031	 1.253487	 0.016453	 2.994328	-3.595708	-174.985800	-163.359600	 20.360650	-28.627280	 6.511192	-23.071030	 10.159330	 13.314340	 62.094120	-14.352630	 1.149156	 26.514970	-2.654569	 167.620500	 10.032600	 45.676110	-2.258435	-27.480320	 11.260240	 13.331950	 75.921780	-14.235800	-1.477943	 30.800950	 2.794365	-4.301127	 5.681350	 38.440730	-9.836102	 4.052608	 9.604386	 9.606455	-2.776821	-17.214120	-105.353600	 3.174909	 92.744830	 14.091800	 54.799330	 12.305100	 9.022070	-0.260341	-8.294952	 4.447874	 16.285920	 119.517600	 3.156519	 48.982480	-1.651907	-7.571611	 55.075550	 7.340480	 6.402133	 29.779290	 0.062017	 4.089252	-8.853242	-2.318277	 1.365752	-7.501030	-8.188271	 109.957300	 21.622480	-97.850940	 5.267018	 34.055900	-20.330450	-24.451250	-0.777065	 8.102497	 15.126730	 14.294250	-50.558780	-3.512112	 8.126692	 0.134400	 13.055150	 28.755610	-6.636700	-8.535103	 20.225620	-0.980108
-0.036116	 1.251350	 0.034458	 1.174743	-2.126043	 179.461300	-162.253800	 15.491250	-34.342630	 5.066646	-18.351890	 6.887225	 5.382469	 60.573150	-7.343817	 1.150004	 26.526550	-2.654905	 168.541100	 9.807673	 40.573150	-2.069700	-25.486370	 10.828350	 13.325510	 74.612350	-13.558720	-1.348848	 29.153970	 2.736275	-0.483414	 6.498461	 13.928170	-8.123645	 3.397206	 7.890738	 9.013953	-2.355958	-15.357780	-106.752400	 3.919537	 92.731150	 14.280360	 52.552940	 13.431850	 7.302988	-0.260052	 4.641582	 12.650300	 16.146960	 111.557100	 1.762257	 32.217370	-0.734329	-6.132686	 37.837000	 4.345579	 5.818260	 16.001410	-0.005221	 3.981418	-8.153682	-1.579812	 0.415503	-6.876886	-4.578269	 113.429800	 18.614900	-97.584400	 4.282367	 37.261820	-16.388240	-11.535530	-0.361765	-4.688919	 9.969577	 21.325730	-51.535220	-2.734966	 5.474327	 0.634013	 12.635450	 24.186840	-5.473233	-8.515276	 14.974750	-0.643916
-0.013563	 1.250195	 0.054145	 0.480660	-1.040009	 175.581500	-161.639600	 11.101340	-38.105630	 3.335063	-12.326190	 2.307744	-3.154797	 57.245380	 1.210375	 1.151583	 26.548040	-2.655532	 169.555200	 10.567090	 36.768240	-2.048785	-25.261110	 9.822984	 11.420010	 73.649790	-10.727020	-1.336470	 28.993390	 2.730882	 3.259435	 5.532550	-10.312790	-6.961197	 3.369533	 6.609441	 8.569644	-2.553306	-13.759960	-108.473100	 4.639965	 92.739400	 20.577130	 47.591760	 8.339509	 14.088060	-0.265673	 18.394770	 24.922800	 15.601510	 91.430020	 0.748481	 14.229990	-0.335170	-5.875932	 19.237120	 2.128734	 5.192358	 1.116690	-0.231348	 3.794016	-7.847087	-0.935315	-0.267311	-6.649663	-1.870236	 116.753800	 15.762840	-97.199920	 4.642169	 40.111910	-12.703550	-14.111920	-0.202152	-18.407480	 0.847782	 25.794730	-47.596120	-2.378891	 4.261581	 0.897265	 12.480970	 22.084540	-4.964001	-8.497650	 12.767590	-0.504388
-0.006468	 1.249727	 0.068718	 0.479748	-0.102655	 172.670500	-161.912800	 8.073908	-40.593380	 2.228668	-8.310393	-0.644557	-7.524712	 54.691850	 5.921537	 1.153993	 26.580760	-2.656488	 170.124500	 11.180460	 34.211520	-2.077255	-25.567490	 8.603261	 5.204179	 72.990770	-5.610786	-1.326285	 28.860600	 2.726470	 5.500187	 4.043424	-27.242690	-5.532172	 3.158743	 5.134836	 7.893817	-2.622862	-12.223100	-110.274600	 5.270483	 92.749330	 27.434050	 44.925500	 1.047125	 20.832310	-0.269677	 31.977440	 29.107450	 17.189170	 68.873250	 0.577954	 9.934791	-0.327524	-5.927191	 14.887350	 1.658529	 5.032368	-2.489830	-0.310414	 3.518945	-7.759110	-0.372622	-0.751840	-6.336565	-0.099700	 119.252000	 13.344950	-96.772900	 1.415086	 36.968270	-8.092570	-20.813660	-0.203062	-31.981960	-0.647188	 25.491500	-37.942090	-2.390392	 4.380797	 0.909957	 12.495240	 22.292450	-5.013744	-8.499407	 12.961920	-0.516655
